<?xml version="1.0" encoding="utf-8"?>
<!-- Generator: Adobe Illustrator 27.5.0, SVG Export Plug-In . SVG Version: 6.00 Build 0)  -->
<svg version="1.1" xmlns="http://www.w3.org/2000/svg" xmlns:xlink="http://www.w3.org/1999/xlink" x="0px" y="0px"
	 viewBox="0 0 500 500" style="enable-background:new 0 0 500 500;" xml:space="preserve">
<g id="Background_Simple">
	<g>
		<path style="fill:#92E3A9;" d="M394.185,145.633c-2.985-6.51-6.132-12.922-9.766-19.032
			c-41.948-70.51-161.142-108.894-224.385-36.014c-15.073,17.37-21.007,38.361-31.527,58.282
			c-23.927,45.308-66.011,72.396-93.536,114.351c-21.336,32.523-20.586,74.204-11.11,109.362
			c10.298,38.204,30.266,64.886,63.225,85.168c36.95,22.738,77.864,16.425,119.282,8.512c18.627-3.558,37.83-7.189,56.648-5.831
			c23.56,1.7,46.586,8.55,69.887,11.88c24.232,3.463,49.5,4.281,73.338-3.265c76.34-24.166,99.319-137.412,71.331-202.283
			c-9.907-22.962-27.663-40.678-44.081-58.652C415.769,188.709,405.228,169.72,394.185,145.633z"/>
		<path style="opacity:0.7;fill:#FFFFFF;" d="M394.185,145.633c-2.985-6.51-6.132-12.922-9.766-19.032
			c-41.948-70.51-161.142-108.894-224.385-36.014c-15.073,17.37-21.007,38.361-31.527,58.282
			c-23.927,45.308-66.011,72.396-93.536,114.351c-21.336,32.523-20.586,74.204-11.11,109.362
			c10.298,38.204,30.266,64.886,63.225,85.168c36.95,22.738,77.864,16.425,119.282,8.512c18.627-3.558,37.83-7.189,56.648-5.831
			c23.56,1.7,46.586,8.55,69.887,11.88c24.232,3.463,49.5,4.281,73.338-3.265c76.34-24.166,99.319-137.412,71.331-202.283
			c-9.907-22.962-27.663-40.678-44.081-58.652C415.769,188.709,405.228,169.72,394.185,145.633z"/>
	</g>
</g>
<g id="Floor">
	<g>
		
			<line style="fill:none;stroke:#263238;stroke-linecap:round;stroke-linejoin:round;stroke-miterlimit:10;" x1="448.411" y1="459.668" x2="14.327" y2="459.668"/>
		
			<line style="fill:none;stroke:#263238;stroke-linecap:round;stroke-linejoin:round;stroke-miterlimit:10;" x1="471.587" y1="459.668" x2="455.928" y2="459.668"/>
	</g>
</g>
<g id="Plants">
	<g>
		<g>
			<path style="fill:#92E3A9;" d="M66.682,374.756c-0.024,0.091-5.285-3.251-5.593-3.5c-3.562-2.881-8.75-10.542-6.902-15.328
				c1.331-3.448,5.369-4.578,8.532-2.974c3.23,1.639,4.936,5.761,5.542,9.129C68.971,366.036,66.684,374.749,66.682,374.756z"/>
			<path style="fill:#92E3A9;" d="M131.835,311.071c-1.589,3.689-8.303,9.695-8.308,9.7c-0.07,0.062-2.615-5.626-2.735-6.004
				c-1.381-4.368-1.482-13.62,2.699-16.593c3.013-2.141,7.004-0.856,8.757,2.227C134.038,303.549,133.188,307.928,131.835,311.071z"
				/>
			<path style="fill:#92E3A9;" d="M147.388,332.241c-2.407,3.016-9.868,6.806-10.463,7.105c2.148,4.151,4.014,8.586,5.656,13.178
				c0.942,2.624,1.809,5.297,2.644,7.987c-0.199-1.285-0.367-2.435-0.373-2.599c-0.179-4.578,2.167-13.529,6.985-15.291
				c3.471-1.27,6.982,1.023,7.858,4.459c0.896,3.51-1.081,7.509-3.217,10.183c-2.167,2.713-8.462,6.072-10.141,6.938
				c0.31,1.036,0.631,2.066,0.936,3.102c1.466,4.974,2.909,9.944,4.474,14.774c0.55,1.703,1.154,3.359,1.753,5.019
				c-0.174-1.142-0.313-2.105-0.319-2.253c-0.179-4.578,2.167-13.529,6.985-15.291c3.472-1.27,6.982,1.023,7.858,4.46
				c0.895,3.509-1.082,7.509-3.217,10.183c-2.067,2.589-7.851,5.742-9.839,6.781c0.665,1.681,1.327,3.366,2.047,4.965
				c0.516,1.081,0.938,2.157,1.517,3.214c0.551,1.058,1.097,2.106,1.636,3.143c1.114,1.96,2.251,3.989,3.386,5.874
				c0.779,1.317,1.546,2.557,2.315,3.809c-0.568-1.688-1.61-5.017-1.665-5.305c-0.871-4.498,0.092-13.7,4.588-16.173
				c3.239-1.78,7.056-0.047,8.443,3.218c1.416,3.333,0.068,7.586-1.637,10.553c-1.878,3.265-8.39,7.981-9.208,8.565
				c1.28,2.067,2.544,4.065,3.767,5.931c4.214,6.464,7.97,11.689,10.65,15.31l-2.54,2.377c-0.079-0.111-0.15-0.21-0.231-0.325
				c-2.633-3.724-6.318-9.094-10.442-15.728c-1.308-2.094-2.663-4.357-4.034-6.694c-0.6,0.236-4.025,1.556-7.376,2.385
				c0.026,3.87-2.613,10.898-2.96,11.802c2.207,1.018,4.364,1.987,6.414,2.869c7.086,3.069,13.105,5.356,17.339,6.898l-2.788,2.609
				c-4.11-1.622-9.534-3.86-15.787-6.73c-2.245-1.025-4.625-2.164-7.057-3.358c-0.567,0.807-5.236,7.374-8.491,9.282
				c-2.952,1.73-7.194,3.113-10.538,1.725c-3.276-1.359-5.042-5.162-3.288-8.416c2.434-4.516,11.629-5.556,16.133-4.722
				c0.266,0.049,3.089,0.904,4.863,1.473c-0.991-0.493-1.959-0.96-2.973-1.48c-2.012-1.014-3.991-2.086-6.123-3.231
				c-1.01-0.589-2.031-1.184-3.062-1.785c-1.035-0.574-2.055-1.312-3.096-1.97c-2.38-1.576-4.716-3.288-7.03-5.066
				c-0.893,1.76-4.153,7.964-6.821,10.132c-2.656,2.156-6.639,4.167-10.156,3.301c-3.443-0.848-5.766-4.339-4.525-7.821
				c1.723-4.832,10.653-7.253,15.233-7.112c0.286,0.008,3.56,0.479,5.354,0.772c-1.383-1.079-2.769-2.15-4.132-3.287
				c-3.937-3.283-7.819-6.728-11.708-10.148c-1.191-1.049-2.389-2.078-3.586-3.114c-0.31,0.63-4.026,8.088-7.014,10.515
				c-2.656,2.157-6.639,4.167-10.156,3.302c-3.443-0.848-5.766-4.34-4.525-7.821c1.722-4.832,10.653-7.253,15.232-7.112
				c0.345,0.011,5.055,0.694,6.245,0.927c-2.636-2.28-5.283-4.528-7.982-6.638c-3.722-2.916-7.534-5.573-11.418-7.872
				c-0.144,0.294-3.986,8.095-7.047,10.581c-2.656,2.157-6.639,4.167-10.157,3.302c-3.443-0.848-5.766-4.339-4.525-7.821
				c1.723-4.833,10.653-7.253,15.232-7.112c0.301,0.009,3.889,0.526,5.591,0.813c0.054-0.152,0.044-0.125,0.098-0.277
				c-4.19-2.413-8.552-4.223-12.719-5.716c-2.412-0.87-4.766-1.566-7.072-2.191c-0.567,1.526-3.233,8.473-5.74,11.014
				c-2.403,2.436-6.141,4.871-9.732,4.398c-3.516-0.465-6.208-3.68-5.356-7.277c1.181-4.993,9.792-8.379,14.358-8.742
				c0.249-0.019,2.796,0.059,4.65,0.143c-1.045-0.266-2.118-0.561-3.125-0.797c-3.775-0.893-7.287-1.479-10.402-1.972
				c-1.774-0.266-3.382-0.472-4.89-0.649c-1.338,1.208-6.789,6.007-10.124,7.088c-3.255,1.054-7.695,1.493-10.663-0.582
				c-2.906-2.033-3.813-6.127-1.4-8.927c3.349-3.886,12.551-2.924,16.772-1.142c0.364,0.155,5.792,3.218,5.722,3.282
				c0,0-0.065,0.059-0.08,0.073c1.454,0.141,3.011,0.308,4.709,0.526c3.132,0.426,6.667,0.937,10.476,1.752
				c3.809,0.804,7.925,1.786,12.167,3.211c4.254,1.422,8.656,3.136,12.963,5.488c0.049,0.026,0.096,0.061,0.145,0.088
				c-1.046-1.079-3.87-4.195-4.06-4.459c-2.674-3.719-5.656-12.479-2.61-16.607c2.195-2.974,6.388-2.998,9.015-0.615
				c2.682,2.434,3.24,6.86,2.934,10.268c-0.345,3.844-4.476,11.12-4.808,11.698c4.082,2.278,8.085,4.947,11.988,7.87
				c2.233,1.669,4.43,3.42,6.611,5.203c-0.875-0.962-1.649-1.829-1.744-1.962c-2.674-3.72-5.656-12.479-2.61-16.607
				c2.195-2.974,6.388-2.998,9.015-0.616c2.683,2.433,3.24,6.86,2.935,10.268c-0.311,3.458-3.709,9.733-4.63,11.381
				c0.829,0.693,1.666,1.376,2.492,2.072c3.967,3.339,7.912,6.688,11.881,9.854c1.399,1.117,2.817,2.165,4.232,3.219
				c-0.776-0.856-1.422-1.583-1.509-1.703c-2.674-3.72-5.656-12.479-2.609-16.607c2.195-2.974,6.388-2.999,9.015-0.616
				c2.682,2.433,3.24,6.86,2.934,10.268c-0.296,3.3-3.38,9.12-4.466,11.084c1.482,1.035,2.964,2.075,4.446,3.012
				c1.027,0.616,1.973,1.281,3.038,1.844c1.043,0.578,2.076,1.151,3.099,1.718c2.011,1.02,4.078,2.085,6.064,3.031
				c1.377,0.668,2.7,1.28,4.032,1.899c-1.406-1.095-4.11-3.297-4.316-3.507c-2.131-2.174-4.722-6.525-5.528-10.534
				c-0.317-0.319-0.604-0.665-0.856-1.038c-1.982-2.941-1.357-7.088,1.901-8.833c4.522-2.424,12.764,1.781,16.062,4.961
				c0.195,0.187,2.077,2.459,3.243,3.911c-0.555-0.958-1.104-1.882-1.663-2.875c-1.119-1.956-2.178-3.941-3.325-6.073
				c-0.518-1.049-1.04-2.108-1.568-3.178c-0.547-1.05-0.99-2.228-1.496-3.35c-1.116-2.628-2.119-5.344-3.069-8.104
				c-1.715,0.975-7.857,4.352-11.278,4.687c-3.405,0.334-7.836-0.187-10.292-2.849c-2.404-2.607-2.416-6.8,0.54-9.02
				c4.103-3.08,12.887-0.173,16.628,2.471c0.233,0.165,2.705,2.364,4.039,3.598c-0.558-1.664-1.124-3.321-1.633-5.021
				c-1.473-4.91-2.81-9.925-4.167-14.923c-0.415-1.531-0.846-3.051-1.272-4.576c-0.607,0.354-7.82,4.525-11.651,4.901
				c-3.406,0.334-7.837-0.187-10.292-2.849c-2.404-2.607-2.415-6.799,0.541-9.019c4.103-3.081,12.887-0.172,16.628,2.471
				c0.282,0.199,3.833,3.368,4.697,4.218c-0.94-3.355-1.908-6.691-2.996-9.94c-1.495-4.486-3.21-8.804-5.18-12.864
				c-0.282,0.165-7.791,4.553-11.715,4.938c-3.405,0.335-7.836-0.187-10.292-2.849c-2.404-2.607-2.415-6.8,0.541-9.019
				c4.103-3.081,12.887-0.173,16.628,2.471c0.246,0.173,2.956,2.587,4.217,3.763c0.129-0.097,0.105-0.079,0.234-0.176
				c-2.164-4.325-4.804-8.242-7.457-11.787c-1.532-2.056-3.111-3.935-4.689-5.73c-1.314,0.961-7.371,5.284-10.865,6.021
				c-3.348,0.706-7.81,0.675-10.543-1.701c-2.676-2.327-3.148-6.494-0.453-9.025c3.739-3.512,12.789-1.586,16.798,0.63
				c0.218,0.12,2.299,1.591,3.799,2.683c-0.724-0.798-1.457-1.636-2.167-2.388c-2.656-2.828-5.262-5.254-7.588-7.384
				c-1.332-1.201-2.561-2.259-3.721-3.238c-1.782,0.269-8.976,1.265-12.354,0.327c-3.297-0.916-7.242-3-8.573-6.368
				c-1.303-3.299,0.199-7.214,3.756-8.218c4.937-1.394,12.081,4.486,14.619,8.301c0.219,0.33,3.055,5.879,2.962,5.895
				c0,0-0.087,0.013-0.107,0.016c1.135,0.919,2.342,1.919,3.637,3.036c2.376,2.083,5.044,4.459,7.771,7.241
				c2.733,2.772,5.625,5.861,8.376,9.39c2.763,3.533,5.49,7.39,7.785,11.729c0.026,0.049,0.046,0.103,0.072,0.152
				c-0.277-1.477-0.914-5.634-0.927-5.958c-0.179-4.578,2.167-13.528,6.985-15.291c3.471-1.27,6.982,1.023,7.858,4.46
				C151.5,325.568,149.523,329.567,147.388,332.241z"/>
			<path style="opacity:0.3;fill:#92E3A9;" d="M131.835,311.071c-1.589,3.689-8.303,9.695-8.308,9.7
				c-0.07,0.062-2.615-5.626-2.735-6.004c-1.381-4.368-1.482-13.62,2.699-16.593c3.013-2.141,7.004-0.856,8.757,2.227
				C134.038,303.549,133.188,307.928,131.835,311.071z"/>
			<path style="opacity:0.3;fill:#92E3A9;" d="M66.682,374.756c-0.024,0.091-5.285-3.251-5.593-3.5
				c-3.562-2.881-8.75-10.542-6.902-15.328c1.331-3.448,5.369-4.578,8.532-2.974c3.23,1.639,4.936,5.761,5.542,9.129
				C68.971,366.036,66.684,374.749,66.682,374.756z"/>
			<path style="opacity:0.3;fill:#92E3A9;" d="M147.388,332.241c-2.407,3.016-9.868,6.806-10.463,7.105
				c2.148,4.151,4.014,8.586,5.656,13.178c0.942,2.624,1.809,5.297,2.644,7.987c-0.199-1.285-0.367-2.435-0.373-2.599
				c-0.179-4.578,2.167-13.529,6.985-15.291c3.471-1.27,6.982,1.023,7.858,4.459c0.896,3.51-1.081,7.509-3.217,10.183
				c-2.167,2.713-8.462,6.072-10.141,6.938c0.31,1.036,0.631,2.066,0.936,3.102c1.466,4.974,2.909,9.944,4.474,14.774
				c0.55,1.703,1.154,3.359,1.753,5.019c-0.174-1.142-0.313-2.105-0.319-2.253c-0.179-4.578,2.167-13.529,6.985-15.291
				c3.472-1.27,6.982,1.023,7.858,4.46c0.895,3.509-1.082,7.509-3.217,10.183c-2.067,2.589-7.851,5.742-9.839,6.781
				c0.665,1.681,1.327,3.366,2.047,4.965c0.516,1.081,0.938,2.157,1.517,3.214c0.551,1.058,1.097,2.106,1.636,3.143
				c1.114,1.96,2.251,3.989,3.386,5.874c0.779,1.317,1.546,2.557,2.315,3.809c-0.568-1.688-1.61-5.017-1.665-5.305
				c-0.871-4.498,0.092-13.7,4.588-16.173c3.239-1.78,7.056-0.047,8.443,3.218c1.416,3.333,0.068,7.586-1.637,10.553
				c-1.878,3.265-8.39,7.981-9.208,8.565c1.28,2.067,2.544,4.065,3.767,5.931c4.214,6.464,7.97,11.689,10.65,15.31l-2.54,2.377
				c-0.079-0.111-0.15-0.21-0.231-0.325c-2.633-3.724-6.318-9.094-10.442-15.728c-1.308-2.094-2.663-4.357-4.034-6.694
				c-0.6,0.236-4.025,1.556-7.376,2.385c0.026,3.87-2.613,10.898-2.96,11.802c2.207,1.018,4.364,1.987,6.414,2.869
				c7.086,3.069,13.105,5.356,17.339,6.898l-2.788,2.609c-4.11-1.622-9.534-3.86-15.787-6.73c-2.245-1.025-4.625-2.164-7.057-3.358
				c-0.567,0.807-5.236,7.374-8.491,9.282c-2.952,1.73-7.194,3.113-10.538,1.725c-3.276-1.359-5.042-5.162-3.288-8.416
				c2.434-4.516,11.629-5.556,16.133-4.722c0.266,0.049,3.089,0.904,4.863,1.473c-0.991-0.493-1.959-0.96-2.973-1.48
				c-2.012-1.014-3.991-2.086-6.123-3.231c-1.01-0.589-2.031-1.184-3.062-1.785c-1.035-0.574-2.055-1.312-3.096-1.97
				c-2.38-1.576-4.716-3.288-7.03-5.066c-0.893,1.76-4.153,7.964-6.821,10.132c-2.656,2.156-6.639,4.167-10.156,3.301
				c-3.443-0.848-5.766-4.339-4.525-7.821c1.723-4.832,10.653-7.253,15.233-7.112c0.286,0.008,3.56,0.479,5.354,0.772
				c-1.383-1.079-2.769-2.15-4.132-3.287c-3.937-3.283-7.819-6.728-11.708-10.148c-1.191-1.049-2.389-2.078-3.586-3.114
				c-0.31,0.63-4.026,8.088-7.014,10.515c-2.656,2.157-6.639,4.167-10.156,3.302c-3.443-0.848-5.766-4.34-4.525-7.821
				c1.722-4.832,10.653-7.253,15.232-7.112c0.345,0.011,5.055,0.694,6.245,0.927c-2.636-2.28-5.283-4.528-7.982-6.638
				c-3.722-2.916-7.534-5.573-11.418-7.872c-0.144,0.294-3.986,8.095-7.047,10.581c-2.656,2.157-6.639,4.167-10.157,3.302
				c-3.443-0.848-5.766-4.339-4.525-7.821c1.723-4.833,10.653-7.253,15.232-7.112c0.301,0.009,3.889,0.526,5.591,0.813
				c0.054-0.152,0.044-0.125,0.098-0.277c-4.19-2.413-8.552-4.223-12.719-5.716c-2.412-0.87-4.766-1.566-7.072-2.191
				c-0.567,1.526-3.233,8.473-5.74,11.014c-2.403,2.436-6.141,4.871-9.732,4.398c-3.516-0.465-6.208-3.68-5.356-7.277
				c1.181-4.993,9.792-8.379,14.358-8.742c0.249-0.019,2.796,0.059,4.65,0.143c-1.045-0.266-2.118-0.561-3.125-0.797
				c-3.775-0.893-7.287-1.479-10.402-1.972c-1.774-0.266-3.382-0.472-4.89-0.649c-1.338,1.208-6.789,6.007-10.124,7.088
				c-3.255,1.054-7.695,1.493-10.663-0.582c-2.906-2.033-3.813-6.127-1.4-8.927c3.349-3.886,12.551-2.924,16.772-1.142
				c0.364,0.155,5.792,3.218,5.722,3.282c0,0-0.065,0.059-0.08,0.073c1.454,0.141,3.011,0.308,4.709,0.526
				c3.132,0.426,6.667,0.937,10.476,1.752c3.809,0.804,7.925,1.786,12.167,3.211c4.254,1.422,8.656,3.136,12.963,5.488
				c0.049,0.026,0.096,0.061,0.145,0.088c-1.046-1.079-3.87-4.195-4.06-4.459c-2.674-3.719-5.656-12.479-2.61-16.607
				c2.195-2.974,6.388-2.998,9.015-0.615c2.682,2.434,3.24,6.86,2.934,10.268c-0.345,3.844-4.476,11.12-4.808,11.698
				c4.082,2.278,8.085,4.947,11.988,7.87c2.233,1.669,4.43,3.42,6.611,5.203c-0.875-0.962-1.649-1.829-1.744-1.962
				c-2.674-3.72-5.656-12.479-2.61-16.607c2.195-2.974,6.388-2.998,9.015-0.616c2.683,2.433,3.24,6.86,2.935,10.268
				c-0.311,3.458-3.709,9.733-4.63,11.381c0.829,0.693,1.666,1.376,2.492,2.072c3.967,3.339,7.912,6.688,11.881,9.854
				c1.399,1.117,2.817,2.165,4.232,3.219c-0.776-0.856-1.422-1.583-1.509-1.703c-2.674-3.72-5.656-12.479-2.609-16.607
				c2.195-2.974,6.388-2.999,9.015-0.616c2.682,2.433,3.24,6.86,2.934,10.268c-0.296,3.3-3.38,9.12-4.466,11.084
				c1.482,1.035,2.964,2.075,4.446,3.012c1.027,0.616,1.973,1.281,3.038,1.844c1.043,0.578,2.076,1.151,3.099,1.718
				c2.011,1.02,4.078,2.085,6.064,3.031c1.377,0.668,2.7,1.28,4.032,1.899c-1.406-1.095-4.11-3.297-4.316-3.507
				c-2.131-2.174-4.722-6.525-5.528-10.534c-0.317-0.319-0.604-0.665-0.856-1.038c-1.982-2.941-1.357-7.088,1.901-8.833
				c4.522-2.424,12.764,1.781,16.062,4.961c0.195,0.187,2.077,2.459,3.243,3.911c-0.555-0.958-1.104-1.882-1.663-2.875
				c-1.119-1.956-2.178-3.941-3.325-6.073c-0.518-1.049-1.04-2.108-1.568-3.178c-0.547-1.05-0.99-2.228-1.496-3.35
				c-1.116-2.628-2.119-5.344-3.069-8.104c-1.715,0.975-7.857,4.352-11.278,4.687c-3.405,0.334-7.836-0.187-10.292-2.849
				c-2.404-2.607-2.416-6.8,0.54-9.02c4.103-3.08,12.887-0.173,16.628,2.471c0.233,0.165,2.705,2.364,4.039,3.598
				c-0.558-1.664-1.124-3.321-1.633-5.021c-1.473-4.91-2.81-9.925-4.167-14.923c-0.415-1.531-0.846-3.051-1.272-4.576
				c-0.607,0.354-7.82,4.525-11.651,4.901c-3.406,0.334-7.837-0.187-10.292-2.849c-2.404-2.607-2.415-6.799,0.541-9.019
				c4.103-3.081,12.887-0.172,16.628,2.471c0.282,0.199,3.833,3.368,4.697,4.218c-0.94-3.355-1.908-6.691-2.996-9.94
				c-1.495-4.486-3.21-8.804-5.18-12.864c-0.282,0.165-7.791,4.553-11.715,4.938c-3.405,0.335-7.836-0.187-10.292-2.849
				c-2.404-2.607-2.415-6.8,0.541-9.019c4.103-3.081,12.887-0.173,16.628,2.471c0.246,0.173,2.956,2.587,4.217,3.763
				c0.129-0.097,0.105-0.079,0.234-0.176c-2.164-4.325-4.804-8.242-7.457-11.787c-1.532-2.056-3.111-3.935-4.689-5.73
				c-1.314,0.961-7.371,5.284-10.865,6.021c-3.348,0.706-7.81,0.675-10.543-1.701c-2.676-2.327-3.148-6.494-0.453-9.025
				c3.739-3.512,12.789-1.586,16.798,0.63c0.218,0.12,2.299,1.591,3.799,2.683c-0.724-0.798-1.457-1.636-2.167-2.388
				c-2.656-2.828-5.262-5.254-7.588-7.384c-1.332-1.201-2.561-2.259-3.721-3.238c-1.782,0.269-8.976,1.265-12.354,0.327
				c-3.297-0.916-7.242-3-8.573-6.368c-1.303-3.299,0.199-7.214,3.756-8.218c4.937-1.394,12.081,4.486,14.619,8.301
				c0.219,0.33,3.055,5.879,2.962,5.895c0,0-0.087,0.013-0.107,0.016c1.135,0.919,2.342,1.919,3.637,3.036
				c2.376,2.083,5.044,4.459,7.771,7.241c2.733,2.772,5.625,5.861,8.376,9.39c2.763,3.533,5.49,7.39,7.785,11.729
				c0.026,0.049,0.046,0.103,0.072,0.152c-0.277-1.477-0.914-5.634-0.927-5.958c-0.179-4.578,2.167-13.528,6.985-15.291
				c3.471-1.27,6.982,1.023,7.858,4.46C151.5,325.568,149.523,329.567,147.388,332.241z"/>
		</g>
		<g>
			<path style="fill:#92E3A9;" d="M433.163,374.756c0.024,0.091,5.285-3.251,5.593-3.5c3.562-2.881,8.75-10.542,6.902-15.328
				c-1.331-3.448-5.369-4.578-8.532-2.974c-3.23,1.639-4.936,5.761-5.542,9.129C430.874,366.036,433.162,374.749,433.163,374.756z"
				/>
			<path style="fill:#92E3A9;" d="M368.011,311.071c1.589,3.689,8.303,9.695,8.308,9.7c0.07,0.062,2.615-5.626,2.735-6.004
				c1.381-4.368,1.482-13.62-2.699-16.593c-3.013-2.141-7.004-0.856-8.757,2.227C365.807,303.549,366.658,307.928,368.011,311.071z"
				/>
			<path style="fill:#92E3A9;" d="M352.458,332.241c2.407,3.016,9.868,6.806,10.463,7.105c-2.148,4.151-4.014,8.586-5.656,13.178
				c-0.942,2.624-1.809,5.297-2.644,7.987c0.199-1.285,0.367-2.435,0.373-2.599c0.179-4.578-2.167-13.529-6.985-15.291
				c-3.471-1.27-6.982,1.023-7.858,4.459c-0.895,3.51,1.082,7.509,3.217,10.183c2.167,2.713,8.462,6.072,10.141,6.938
				c-0.31,1.036-0.631,2.066-0.936,3.102c-1.466,4.974-2.909,9.944-4.474,14.774c-0.55,1.703-1.154,3.359-1.753,5.019
				c0.175-1.142,0.313-2.105,0.319-2.253c0.179-4.578-2.167-13.529-6.985-15.291c-3.472-1.27-6.982,1.023-7.858,4.46
				c-0.894,3.509,1.082,7.509,3.217,10.183c2.067,2.589,7.851,5.742,9.839,6.781c-0.665,1.681-1.327,3.366-2.047,4.965
				c-0.516,1.081-0.938,2.157-1.517,3.214c-0.551,1.058-1.097,2.106-1.636,3.143c-1.114,1.96-2.251,3.989-3.386,5.874
				c-0.779,1.317-1.546,2.557-2.315,3.809c0.568-1.688,1.61-5.017,1.665-5.305c0.871-4.498-0.092-13.7-4.588-16.173
				c-3.239-1.78-7.056-0.047-8.443,3.218c-1.416,3.333-0.068,7.586,1.637,10.553c1.878,3.265,8.39,7.981,9.208,8.565
				c-1.28,2.067-2.544,4.065-3.767,5.931c-4.214,6.464-7.97,11.689-10.65,15.31l2.54,2.377c0.079-0.111,0.15-0.21,0.231-0.325
				c2.633-3.724,6.319-9.094,10.442-15.728c1.308-2.094,2.663-4.357,4.034-6.694c0.6,0.236,4.025,1.556,7.376,2.385
				c-0.026,3.87,2.613,10.898,2.96,11.802c-2.207,1.018-4.364,1.987-6.414,2.869c-7.086,3.069-13.105,5.356-17.339,6.898
				l2.788,2.609c4.11-1.622,9.534-3.86,15.787-6.73c2.245-1.025,4.625-2.164,7.057-3.358c0.567,0.807,5.236,7.374,8.491,9.282
				c2.952,1.73,7.194,3.113,10.539,1.725c3.276-1.359,5.042-5.162,3.288-8.416c-2.434-4.516-11.629-5.556-16.133-4.722
				c-0.266,0.049-3.09,0.904-4.862,1.473c0.991-0.493,1.959-0.96,2.973-1.48c2.012-1.014,3.991-2.086,6.123-3.231
				c1.01-0.589,2.031-1.184,3.062-1.785c1.035-0.574,2.055-1.312,3.096-1.97c2.38-1.576,4.716-3.288,7.03-5.066
				c0.893,1.76,4.152,7.964,6.821,10.132c2.656,2.156,6.639,4.167,10.156,3.301c3.443-0.848,5.766-4.339,4.525-7.821
				c-1.723-4.832-10.653-7.253-15.233-7.112c-0.286,0.008-3.56,0.479-5.354,0.772c1.383-1.079,2.769-2.15,4.132-3.287
				c3.937-3.283,7.82-6.728,11.708-10.148c1.191-1.049,2.389-2.078,3.586-3.114c0.31,0.63,4.026,8.088,7.014,10.515
				c2.656,2.157,6.639,4.167,10.156,3.302c3.443-0.848,5.766-4.34,4.525-7.821c-1.722-4.832-10.653-7.253-15.232-7.112
				c-0.345,0.011-5.055,0.694-6.245,0.927c2.635-2.28,5.283-4.528,7.982-6.638c3.722-2.916,7.534-5.573,11.417-7.872
				c0.144,0.294,3.986,8.095,7.047,10.581c2.656,2.157,6.639,4.167,10.156,3.302c3.443-0.848,5.766-4.339,4.525-7.821
				c-1.723-4.833-10.653-7.253-15.232-7.112c-0.301,0.009-3.889,0.526-5.59,0.813c-0.054-0.152-0.044-0.125-0.098-0.277
				c4.19-2.413,8.552-4.223,12.72-5.716c2.412-0.87,4.766-1.566,7.072-2.191c0.567,1.526,3.233,8.473,5.74,11.014
				c2.404,2.436,6.141,4.871,9.732,4.398c3.516-0.465,6.208-3.68,5.356-7.277c-1.181-4.993-9.792-8.379-14.358-8.742
				c-0.249-0.019-2.796,0.059-4.65,0.143c1.045-0.266,2.118-0.561,3.125-0.797c3.775-0.893,7.287-1.479,10.402-1.972
				c1.774-0.266,3.382-0.472,4.89-0.649c1.338,1.208,6.789,6.007,10.124,7.088c3.255,1.054,7.695,1.493,10.663-0.582
				c2.906-2.033,3.813-6.127,1.4-8.927c-3.349-3.886-12.551-2.924-16.772-1.142c-0.364,0.155-5.792,3.218-5.723,3.282
				c0,0,0.065,0.059,0.081,0.073c-1.454,0.141-3.011,0.308-4.709,0.526c-3.132,0.426-6.667,0.937-10.476,1.752
				c-3.809,0.804-7.925,1.786-12.167,3.211c-4.254,1.422-8.656,3.136-12.963,5.488c-0.049,0.026-0.096,0.061-0.145,0.088
				c1.046-1.079,3.87-4.195,4.06-4.459c2.674-3.719,5.656-12.479,2.61-16.607c-2.195-2.974-6.388-2.998-9.015-0.615
				c-2.682,2.434-3.24,6.86-2.934,10.268c0.345,3.844,4.476,11.12,4.808,11.698c-4.082,2.278-8.085,4.947-11.988,7.87
				c-2.233,1.669-4.43,3.42-6.611,5.203c0.875-0.962,1.649-1.829,1.745-1.962c2.674-3.72,5.656-12.479,2.61-16.607
				c-2.195-2.974-6.388-2.998-9.015-0.616c-2.683,2.433-3.24,6.86-2.935,10.268c0.31,3.458,3.708,9.733,4.63,11.381
				c-0.829,0.693-1.666,1.376-2.492,2.072c-3.967,3.339-7.912,6.688-11.881,9.854c-1.399,1.117-2.817,2.165-4.232,3.219
				c0.776-0.856,1.422-1.583,1.509-1.703c2.674-3.72,5.656-12.479,2.609-16.607c-2.195-2.974-6.388-2.999-9.015-0.616
				c-2.682,2.433-3.24,6.86-2.934,10.268c0.296,3.3,3.38,9.12,4.466,11.084c-1.482,1.035-2.964,2.075-4.446,3.012
				c-1.027,0.616-1.973,1.281-3.038,1.844c-1.043,0.578-2.076,1.151-3.099,1.718c-2.011,1.02-4.078,2.085-6.065,3.031
				c-1.376,0.668-2.7,1.28-4.032,1.899c1.406-1.095,4.111-3.297,4.316-3.507c2.131-2.174,4.722-6.525,5.528-10.534
				c0.317-0.319,0.604-0.665,0.856-1.038c1.982-2.941,1.357-7.088-1.901-8.833c-4.522-2.424-12.764,1.781-16.062,4.961
				c-0.194,0.187-2.077,2.459-3.242,3.911c0.555-0.958,1.104-1.882,1.663-2.875c1.119-1.956,2.178-3.941,3.325-6.073
				c0.517-1.049,1.04-2.108,1.568-3.178c0.547-1.05,0.99-2.228,1.496-3.35c1.116-2.628,2.119-5.344,3.069-8.104
				c1.715,0.975,7.857,4.352,11.278,4.687c3.405,0.334,7.836-0.187,10.292-2.849c2.405-2.607,2.416-6.8-0.54-9.02
				c-4.103-3.08-12.887-0.173-16.628,2.471c-0.233,0.165-2.705,2.364-4.039,3.598c0.558-1.664,1.124-3.321,1.633-5.021
				c1.473-4.91,2.81-9.925,4.167-14.923c0.415-1.531,0.846-3.051,1.272-4.576c0.607,0.354,7.82,4.525,11.651,4.901
				c3.405,0.334,7.837-0.187,10.292-2.849c2.404-2.607,2.415-6.799-0.54-9.019c-4.103-3.081-12.887-0.172-16.628,2.471
				c-0.282,0.199-3.833,3.368-4.697,4.218c0.94-3.355,1.908-6.691,2.996-9.94c1.495-4.486,3.21-8.804,5.18-12.864
				c0.282,0.165,7.791,4.553,11.715,4.938c3.405,0.335,7.836-0.187,10.292-2.849c2.404-2.607,2.415-6.8-0.541-9.019
				c-4.103-3.081-12.887-0.173-16.628,2.471c-0.246,0.173-2.956,2.587-4.217,3.763c-0.129-0.097-0.105-0.079-0.234-0.176
				c2.164-4.325,4.804-8.242,7.457-11.787c1.532-2.056,3.111-3.935,4.689-5.73c1.315,0.961,7.371,5.284,10.865,6.021
				c3.348,0.706,7.81,0.675,10.543-1.701c2.676-2.327,3.148-6.494,0.453-9.025c-3.739-3.512-12.789-1.586-16.798,0.63
				c-0.218,0.12-2.299,1.591-3.799,2.683c0.724-0.798,1.457-1.636,2.167-2.388c2.656-2.828,5.262-5.254,7.588-7.384
				c1.332-1.201,2.561-2.259,3.721-3.238c1.782,0.269,8.976,1.265,12.354,0.327c3.297-0.916,7.242-3,8.573-6.368
				c1.303-3.299-0.199-7.214-3.756-8.218c-4.937-1.394-12.081,4.486-14.619,8.301c-0.219,0.33-3.055,5.879-2.962,5.895
				c0,0,0.087,0.013,0.107,0.016c-1.135,0.919-2.342,1.919-3.637,3.036c-2.376,2.083-5.043,4.459-7.771,7.241
				c-2.733,2.772-5.625,5.861-8.376,9.39c-2.763,3.533-5.49,7.39-7.785,11.729c-0.026,0.049-0.046,0.103-0.072,0.152
				c0.277-1.477,0.914-5.634,0.927-5.958c0.179-4.578-2.167-13.528-6.985-15.291c-3.471-1.27-6.982,1.023-7.858,4.46
				C348.345,325.568,350.322,329.567,352.458,332.241z"/>
			<path style="opacity:0.3;fill:#92E3A9;" d="M368.011,311.071c1.589,3.689,8.303,9.695,8.308,9.7
				c0.07,0.062,2.615-5.626,2.735-6.004c1.381-4.368,1.482-13.62-2.699-16.593c-3.013-2.141-7.004-0.856-8.757,2.227
				C365.807,303.549,366.658,307.928,368.011,311.071z"/>
			<path style="opacity:0.3;fill:#92E3A9;" d="M433.163,374.756c0.024,0.091,5.285-3.251,5.593-3.5
				c3.562-2.881,8.75-10.542,6.902-15.328c-1.331-3.448-5.369-4.578-8.532-2.974c-3.23,1.639-4.936,5.761-5.542,9.129
				C430.874,366.036,433.162,374.749,433.163,374.756z"/>
			<path style="opacity:0.3;fill:#92E3A9;" d="M352.458,332.241c2.407,3.016,9.868,6.806,10.463,7.105
				c-2.148,4.151-4.014,8.586-5.656,13.178c-0.942,2.624-1.809,5.297-2.644,7.987c0.199-1.285,0.367-2.435,0.373-2.599
				c0.179-4.578-2.167-13.529-6.985-15.291c-3.471-1.27-6.982,1.023-7.858,4.459c-0.895,3.51,1.082,7.509,3.217,10.183
				c2.167,2.713,8.462,6.072,10.141,6.938c-0.31,1.036-0.631,2.066-0.936,3.102c-1.466,4.974-2.909,9.944-4.474,14.774
				c-0.55,1.703-1.154,3.359-1.753,5.019c0.175-1.142,0.313-2.105,0.319-2.253c0.179-4.578-2.167-13.529-6.985-15.291
				c-3.472-1.27-6.982,1.023-7.858,4.46c-0.894,3.509,1.082,7.509,3.217,10.183c2.067,2.589,7.851,5.742,9.839,6.781
				c-0.665,1.681-1.327,3.366-2.047,4.965c-0.516,1.081-0.938,2.157-1.517,3.214c-0.551,1.058-1.097,2.106-1.636,3.143
				c-1.114,1.96-2.251,3.989-3.386,5.874c-0.779,1.317-1.546,2.557-2.315,3.809c0.568-1.688,1.61-5.017,1.665-5.305
				c0.871-4.498-0.092-13.7-4.588-16.173c-3.239-1.78-7.056-0.047-8.443,3.218c-1.416,3.333-0.068,7.586,1.637,10.553
				c1.878,3.265,8.39,7.981,9.208,8.565c-1.28,2.067-2.544,4.065-3.767,5.931c-4.214,6.464-7.97,11.689-10.65,15.31l2.54,2.377
				c0.079-0.111,0.15-0.21,0.231-0.325c2.633-3.724,6.319-9.094,10.442-15.728c1.308-2.094,2.663-4.357,4.034-6.694
				c0.6,0.236,4.025,1.556,7.376,2.385c-0.026,3.87,2.613,10.898,2.96,11.802c-2.207,1.018-4.364,1.987-6.414,2.869
				c-7.086,3.069-13.105,5.356-17.339,6.898l2.788,2.609c4.11-1.622,9.534-3.86,15.787-6.73c2.245-1.025,4.625-2.164,7.057-3.358
				c0.567,0.807,5.236,7.374,8.491,9.282c2.952,1.73,7.194,3.113,10.539,1.725c3.276-1.359,5.042-5.162,3.288-8.416
				c-2.434-4.516-11.629-5.556-16.133-4.722c-0.266,0.049-3.09,0.904-4.862,1.473c0.991-0.493,1.959-0.96,2.973-1.48
				c2.012-1.014,3.991-2.086,6.123-3.231c1.01-0.589,2.031-1.184,3.062-1.785c1.035-0.574,2.055-1.312,3.096-1.97
				c2.38-1.576,4.716-3.288,7.03-5.066c0.893,1.76,4.152,7.964,6.821,10.132c2.656,2.156,6.639,4.167,10.156,3.301
				c3.443-0.848,5.766-4.339,4.525-7.821c-1.723-4.832-10.653-7.253-15.233-7.112c-0.286,0.008-3.56,0.479-5.354,0.772
				c1.383-1.079,2.769-2.15,4.132-3.287c3.937-3.283,7.82-6.728,11.708-10.148c1.191-1.049,2.389-2.078,3.586-3.114
				c0.31,0.63,4.026,8.088,7.014,10.515c2.656,2.157,6.639,4.167,10.156,3.302c3.443-0.848,5.766-4.34,4.525-7.821
				c-1.722-4.832-10.653-7.253-15.232-7.112c-0.345,0.011-5.055,0.694-6.245,0.927c2.635-2.28,5.283-4.528,7.982-6.638
				c3.722-2.916,7.534-5.573,11.417-7.872c0.144,0.294,3.986,8.095,7.047,10.581c2.656,2.157,6.639,4.167,10.156,3.302
				c3.443-0.848,5.766-4.339,4.525-7.821c-1.723-4.833-10.653-7.253-15.232-7.112c-0.301,0.009-3.889,0.526-5.59,0.813
				c-0.054-0.152-0.044-0.125-0.098-0.277c4.19-2.413,8.552-4.223,12.72-5.716c2.412-0.87,4.766-1.566,7.072-2.191
				c0.567,1.526,3.233,8.473,5.74,11.014c2.404,2.436,6.141,4.871,9.732,4.398c3.516-0.465,6.208-3.68,5.356-7.277
				c-1.181-4.993-9.792-8.379-14.358-8.742c-0.249-0.019-2.796,0.059-4.65,0.143c1.045-0.266,2.118-0.561,3.125-0.797
				c3.775-0.893,7.287-1.479,10.402-1.972c1.774-0.266,3.382-0.472,4.89-0.649c1.338,1.208,6.789,6.007,10.124,7.088
				c3.255,1.054,7.695,1.493,10.663-0.582c2.906-2.033,3.813-6.127,1.4-8.927c-3.349-3.886-12.551-2.924-16.772-1.142
				c-0.364,0.155-5.792,3.218-5.723,3.282c0,0,0.065,0.059,0.081,0.073c-1.454,0.141-3.011,0.308-4.709,0.526
				c-3.132,0.426-6.667,0.937-10.476,1.752c-3.809,0.804-7.925,1.786-12.167,3.211c-4.254,1.422-8.656,3.136-12.963,5.488
				c-0.049,0.026-0.096,0.061-0.145,0.088c1.046-1.079,3.87-4.195,4.06-4.459c2.674-3.719,5.656-12.479,2.61-16.607
				c-2.195-2.974-6.388-2.998-9.015-0.615c-2.682,2.434-3.24,6.86-2.934,10.268c0.345,3.844,4.476,11.12,4.808,11.698
				c-4.082,2.278-8.085,4.947-11.988,7.87c-2.233,1.669-4.43,3.42-6.611,5.203c0.875-0.962,1.649-1.829,1.745-1.962
				c2.674-3.72,5.656-12.479,2.61-16.607c-2.195-2.974-6.388-2.998-9.015-0.616c-2.683,2.433-3.24,6.86-2.935,10.268
				c0.31,3.458,3.708,9.733,4.63,11.381c-0.829,0.693-1.666,1.376-2.492,2.072c-3.967,3.339-7.912,6.688-11.881,9.854
				c-1.399,1.117-2.817,2.165-4.232,3.219c0.776-0.856,1.422-1.583,1.509-1.703c2.674-3.72,5.656-12.479,2.609-16.607
				c-2.195-2.974-6.388-2.999-9.015-0.616c-2.682,2.433-3.24,6.86-2.934,10.268c0.296,3.3,3.38,9.12,4.466,11.084
				c-1.482,1.035-2.964,2.075-4.446,3.012c-1.027,0.616-1.973,1.281-3.038,1.844c-1.043,0.578-2.076,1.151-3.099,1.718
				c-2.011,1.02-4.078,2.085-6.065,3.031c-1.376,0.668-2.7,1.28-4.032,1.899c1.406-1.095,4.111-3.297,4.316-3.507
				c2.131-2.174,4.722-6.525,5.528-10.534c0.317-0.319,0.604-0.665,0.856-1.038c1.982-2.941,1.357-7.088-1.901-8.833
				c-4.522-2.424-12.764,1.781-16.062,4.961c-0.194,0.187-2.077,2.459-3.242,3.911c0.555-0.958,1.104-1.882,1.663-2.875
				c1.119-1.956,2.178-3.941,3.325-6.073c0.517-1.049,1.04-2.108,1.568-3.178c0.547-1.05,0.99-2.228,1.496-3.35
				c1.116-2.628,2.119-5.344,3.069-8.104c1.715,0.975,7.857,4.352,11.278,4.687c3.405,0.334,7.836-0.187,10.292-2.849
				c2.405-2.607,2.416-6.8-0.54-9.02c-4.103-3.08-12.887-0.173-16.628,2.471c-0.233,0.165-2.705,2.364-4.039,3.598
				c0.558-1.664,1.124-3.321,1.633-5.021c1.473-4.91,2.81-9.925,4.167-14.923c0.415-1.531,0.846-3.051,1.272-4.576
				c0.607,0.354,7.82,4.525,11.651,4.901c3.405,0.334,7.837-0.187,10.292-2.849c2.404-2.607,2.415-6.799-0.54-9.019
				c-4.103-3.081-12.887-0.172-16.628,2.471c-0.282,0.199-3.833,3.368-4.697,4.218c0.94-3.355,1.908-6.691,2.996-9.94
				c1.495-4.486,3.21-8.804,5.18-12.864c0.282,0.165,7.791,4.553,11.715,4.938c3.405,0.335,7.836-0.187,10.292-2.849
				c2.404-2.607,2.415-6.8-0.541-9.019c-4.103-3.081-12.887-0.173-16.628,2.471c-0.246,0.173-2.956,2.587-4.217,3.763
				c-0.129-0.097-0.105-0.079-0.234-0.176c2.164-4.325,4.804-8.242,7.457-11.787c1.532-2.056,3.111-3.935,4.689-5.73
				c1.315,0.961,7.371,5.284,10.865,6.021c3.348,0.706,7.81,0.675,10.543-1.701c2.676-2.327,3.148-6.494,0.453-9.025
				c-3.739-3.512-12.789-1.586-16.798,0.63c-0.218,0.12-2.299,1.591-3.799,2.683c0.724-0.798,1.457-1.636,2.167-2.388
				c2.656-2.828,5.262-5.254,7.588-7.384c1.332-1.201,2.561-2.259,3.721-3.238c1.782,0.269,8.976,1.265,12.354,0.327
				c3.297-0.916,7.242-3,8.573-6.368c1.303-3.299-0.199-7.214-3.756-8.218c-4.937-1.394-12.081,4.486-14.619,8.301
				c-0.219,0.33-3.055,5.879-2.962,5.895c0,0,0.087,0.013,0.107,0.016c-1.135,0.919-2.342,1.919-3.637,3.036
				c-2.376,2.083-5.043,4.459-7.771,7.241c-2.733,2.772-5.625,5.861-8.376,9.39c-2.763,3.533-5.49,7.39-7.785,11.729
				c-0.026,0.049-0.046,0.103-0.072,0.152c0.277-1.477,0.914-5.634,0.927-5.958c0.179-4.578-2.167-13.528-6.985-15.291
				c-3.471-1.27-6.982,1.023-7.858,4.46C348.345,325.568,350.322,329.567,352.458,332.241z"/>
		</g>
	</g>
</g>
<g id="Hand_2">
	<g>
		<path style="fill:#263238;stroke:#263238;stroke-linecap:round;stroke-linejoin:round;stroke-miterlimit:10;" d="M87.341,104.586
			c0,0,4.179-5.318,9.877-16.715C102.916,76.475,90,82.173,90,82.173S85.822,94.709,87.341,104.586z"/>
		<path style="fill:#C4C4C4;stroke:#263238;stroke-linecap:round;stroke-linejoin:round;stroke-miterlimit:10;" d="M209.185,104.385
			c0,0,2.907,2.181,5.33,0.969c2.423-1.211,3.392-1.454,1.938-5.33c-1.454-3.877-4.603-11.63-5.088-13.083
			c-0.484-1.454,2.907-7.995,2.665-10.66c-0.242-2.665-2.181-5.815-2.181-7.269s-4.846-12.599-7.026-15.506
			c-2.181-2.907-6.299-1.211-10.176-1.211c-3.876,0-17.202-1.211-21.563-1.696s-6.784,1.938-9.449,5.088
			c-2.665,3.15-12.356,12.114-12.356,12.114s-7.026-1.211-25.198-5.33c-18.171-4.119-32.951-10.66-32.951-10.66
			s-7.995,16.233-8.48,25.682c-0.485,9.449,0,12.841,0,12.841s54.272,4.119,58.875,5.573c4.603,1.454,12.841,4.846,19.14,5.815
			c6.299,0.969,10.66,0.485,17.929,1.696c7.269,1.211,14.295,4.846,14.295,4.846l3.877-9.934c0,0-6.542-1.938-11.387-3.392
			c-4.846-1.454-7.753-5.815-8.48-6.784c-0.727-0.969-4.361-9.934-4.361-9.934s10.903,4.361,15.991,7.753
			S209.185,104.385,209.185,104.385z"/>
		<polygon style="fill:#FFFFFF;stroke:#263238;stroke-linecap:round;stroke-linejoin:round;stroke-miterlimit:10;" points="
			196.102,94.936 149.826,190.88 218.15,226.738 262.73,128.128 		"/>
		<path style="fill:#C4C4C4;stroke:#263238;stroke-linecap:round;stroke-linejoin:round;stroke-miterlimit:10;" d="M167.997,77.976
			l17.202,9.207c0,0,13.568,16.475,16.96,19.14c3.392,2.665,7.269,3.877,8.964,2.907c1.696-0.969,1.212-1.938,0-4.361
			c-1.211-2.423-10.176-15.749-12.599-19.625c-2.423-3.877-5.573-9.449-10.418-14.052c-4.846-4.603-12.599-9.449-12.599-9.449"/>
		<path style="fill:none;stroke:#263238;stroke-linecap:round;stroke-linejoin:round;stroke-miterlimit:10;" d="M211.366,86.94
			c0,0-7.753-14.537-10.176-18.414c-2.423-3.876-13.568-9.934-17.687-11.872"/>
		
			<line style="fill:none;stroke:#263238;stroke-linecap:round;stroke-linejoin:round;stroke-miterlimit:10;" x1="199.009" y1="66.104" x2="201.917" y2="64.892"/>
		<path style="fill:none;stroke:#263238;stroke-linecap:round;stroke-linejoin:round;stroke-miterlimit:10;" d="M165.245,80.794
			c2.855,1.249,6.777,2.649,9.778,2.512"/>
		<path style="fill:none;stroke:#263238;stroke-linecap:round;stroke-linejoin:round;stroke-miterlimit:10;" d="M161.455,78.945
			c0,0,0.725,0.405,1.883,0.968"/>
		<polyline style="fill:#FFFFFF;stroke:#263238;stroke-linecap:round;stroke-linejoin:round;stroke-miterlimit:10;" points="
			18.086,26.837 78.109,47.932 63.088,95.662 9.316,88.849 		"/>
		<path style="fill:#92E3A9;stroke:#263238;stroke-linecap:round;stroke-linejoin:round;stroke-miterlimit:10;" d="M103.792,53.747
			c0,0-7.511,3.634-9.934,14.779c-2.423,11.145-6.057,28.105-6.057,31.739c0,3.634-0.727,5.088-2.907,4.846
			c-2.181-0.242-21.806-7.026-23.744-8.48c-1.938-1.454-2.181-25.924,3.15-37.069c5.33-11.145,10.903-14.537,12.114-14.779
			c1.211-0.242,23.502,5.33,24.713,5.815C102.338,51.082,103.792,51.567,103.792,53.747z"/>
	</g>
</g>
<g id="Hand_3">
	<g>
		<path style="fill:#FFFFFF;stroke:#263238;stroke-linecap:round;stroke-linejoin:round;stroke-miterlimit:10;" d="M358.234,65.632
			c0,0-21.861,7.792-30.951,9.307c-9.091,1.515-24.674,6.277-30.302,7.792c-5.628,1.515-5.195,14.934-5.195,14.934
			s-7.575,20.562-8.225,24.458c-0.649,3.896,2.381,6.926,2.381,6.926s5.844,10.822,7.575,13.636l84.629-46.968
			C378.147,95.717,380.311,66.931,358.234,65.632z"/>
		<polygon style="fill:#FFFFFF;stroke:#263238;stroke-linecap:round;stroke-linejoin:round;stroke-miterlimit:10;" points="
			304.78,131.102 219.833,197.64 269.512,259.365 351.578,193.87 		"/>
		<path style="fill:#92E3A9;stroke:#263238;stroke-linecap:round;stroke-linejoin:round;stroke-miterlimit:10;" d="M470.568,53.944
			c0,0-34.414,22.726-39.609,27.055c-5.195,4.329-10.822,2.381-10.822,2.381l-44.37,22.943l-22.077-40.907l43.505-26.839
			c0,0,0.433-3.463,2.381-5.627c1.948-2.164,40.691-26.406,40.691-26.406"/>
		<path style="fill:#FFFFFF;stroke:#263238;stroke-linecap:round;stroke-linejoin:round;stroke-miterlimit:10;" d="M325.335,105.674
			c0,0-2.597,9.307-8.874,16.017c-6.277,6.71-11.688,9.09-15.8,16.45c-4.112,7.359-1.515,12.337,1.732,12.986
			c3.247,0.649,19.913-9.523,27.921-16.666c8.008-7.143,8.008-9.307,12.554-10.389c4.545-1.082,14.935-6.06,19.263-14.718
			c4.329-8.658,4.329-8.658,4.329-8.658"/>
		<path style="fill:none;stroke:#263238;stroke-linecap:round;stroke-linejoin:round;stroke-miterlimit:10;" d="M309.812,101.048
			c-0.529-0.99-0.992-1.979-1.359-2.949"/>
		<path style="fill:none;stroke:#263238;stroke-linecap:round;stroke-linejoin:round;stroke-miterlimit:10;" d="M321.007,115.414
			c0,0-5.116-4.999-9.041-10.823"/>
		<path style="fill:none;stroke:#263238;stroke-linecap:round;stroke-linejoin:round;stroke-miterlimit:10;" d="M314.479,108.501
			c0,0-4.336,3.117-6.233,4.201c-1.897,1.084-4.065,2.033-4.065,2.033s-2.439,4.743-3.388,6.504
			C299.844,123,299.844,123,299.844,123s2.981,5.014,3.252,7.724"/>
		<path style="fill:none;stroke:#263238;stroke-linecap:round;stroke-linejoin:round;stroke-miterlimit:10;" d="M304.18,114.734
			c0,0-2.846-0.813-3.93-2.168"/>
		<path style="fill:none;stroke:#263238;stroke-linecap:round;stroke-linejoin:round;stroke-miterlimit:10;" d="M299.844,123
			c0,0-2.168,0.813-4.878,0"/>
		<path style="fill:none;stroke:#263238;stroke-linecap:round;stroke-linejoin:round;stroke-miterlimit:10;" d="M315.698,109.585
			c0,0-4.607,5.014-8.266,6.233c0,0,0.271,5.149-1.491,8.131l-3.117,1.355"/>
		<path style="fill:none;stroke:#263238;stroke-linecap:round;stroke-linejoin:round;stroke-miterlimit:10;" d="M307.297,124.626
			c0,0,2.71,0.271,3.794,1.897"/>
		<path style="fill:#263238;stroke:#263238;stroke-linecap:round;stroke-linejoin:round;stroke-miterlimit:10;" d="M317.189,111.888
			c0,0-1.626,1.491-3.117,2.846c-1.491,1.355-2.981,1.897-2.981,1.897s0.949,3.252,0.949,4.201c0,0.949,0,0.949,0,0.949l2.168,1.355
			l2.254-1.445l4.545-6.277L317.189,111.888z"/>
		
			<line style="fill:none;stroke:#263238;stroke-linecap:round;stroke-linejoin:round;stroke-miterlimit:10;" x1="311.091" y1="116.631" x2="308.923" y2="116.36"/>
		
			<line style="fill:none;stroke:#263238;stroke-linecap:round;stroke-linejoin:round;stroke-miterlimit:10;" x1="307.432" y1="115.818" x2="304.858" y2="115.683"/>
		<path style="fill:none;stroke:#263238;stroke-linecap:round;stroke-linejoin:round;stroke-miterlimit:10;" d="M312.039,121.78
			c0,0-1.626,0.813-2.575,0.948"/>
	</g>
</g>
<g id="Hand_1">
	<g>
		<polygon style="fill:#FFFFFF;stroke:#263238;stroke-linecap:round;stroke-linejoin:round;stroke-miterlimit:10;" points="
			159.022,200.747 132.253,278.236 237.601,316.647 269.285,238.405 		"/>
		<g>
			<path style="fill:#E8E8E8;stroke:#263238;stroke-linecap:round;stroke-linejoin:round;stroke-miterlimit:10;" d="M65.324,200.604
				c0,0,51.325-0.335,57.542-0.34c6.217-0.005,7.896-0.052,8.759,0.765c0.863,0.816,28.633,26.593,29.067,30.11
				c0.434,3.517-2.728,22.76-5.106,27.868c-2.379,5.107-4.96,11.984-7.206,12.803s-4.611-5.669-4.569-10.207
				c0.042-4.538,0.175-8.827,0.195-11.096c0.021-2.269,1.625-11.051,1.625-11.051l-4.722-3.65c0,0,1.78,12.637,0.353,15.701
				c-1.427,3.064-13.066,4.48-13.066,4.48s-1.495,3.654-4.58,4.496c-3.085,0.842-9.326,0.007-9.326,0.007s-6.103,1.094-7.873,0.891
				c-1.77-0.203-10.053-1.989-12.824-4.936c-2.771-2.948-2.84-5.466-2.84-5.466s-9.983,0.53-15.907-0.986
				c-5.923-1.516-11.963-7.229-11.963-7.229L65.324,200.604z"/>
			<path style="fill:none;stroke:#263238;stroke-linecap:round;stroke-linejoin:round;stroke-miterlimit:10;" d="M118.922,233.645
				c0,0-1.175,6.082-1.331,9.531c-0.156,3.449,1.782,15.746-3.299,17.315"/>
			<path style="fill:none;stroke:#263238;stroke-linecap:round;stroke-linejoin:round;stroke-miterlimit:10;" d="M129.173,227.647
				c0,0-1.539,5.084-0.97,7.421c0.569,2.337,2.51,17.742-0.006,20.92"/>
			<path style="fill:none;stroke:#263238;stroke-linecap:round;stroke-linejoin:round;stroke-miterlimit:10;" d="M140.911,235.806
				c0,0-3.137-7.054-4.116-12.068c-0.98-5.014-2.162-8.258-3.344-11.501"/>
			<path style="fill:none;stroke:#263238;stroke-linecap:round;stroke-linejoin:round;stroke-miterlimit:10;" d="M123.856,217.712
				c0,0,4.314,4.081-0.31,10.007"/>
			<path style="fill:none;stroke:#263238;stroke-linecap:round;stroke-linejoin:round;stroke-miterlimit:10;" d="M115.244,231.311
				c0,0,0.275,3.857-2.514,6.287"/>
			<path style="fill:none;stroke:#263238;stroke-linecap:round;stroke-linejoin:round;stroke-miterlimit:10;" d="M128.543,204.98
				c0,0,2.771,2.948,2.57,7.826"/>
			<path style="fill:none;stroke:#263238;stroke-linecap:round;stroke-linejoin:round;stroke-miterlimit:10;" d="M90.754,250.98
				l5.489-2.001l4.925,1.879c0,0-1.245,3.563,0.912,5.604"/>
			<path style="fill:none;stroke:#263238;stroke-linecap:round;stroke-linejoin:round;stroke-miterlimit:10;" d="M96.244,248.979
				c0,0-2.085,3.587-0.585,6.149"/>
			<path style="fill:none;stroke:#263238;stroke-linecap:round;stroke-linejoin:round;stroke-miterlimit:10;" d="M101.169,250.858
				c0,0,1.269-2.724,3.922-3.974"/>
		</g>
		<polygon style="fill:#FFFFFF;stroke:#263238;stroke-linecap:round;stroke-linejoin:round;stroke-miterlimit:10;" points="
			43.695,193.224 70.201,197.696 62.798,248.732 39.902,247.185 		"/>
		<polyline style="fill:#263238;stroke:#263238;stroke-linecap:round;stroke-linejoin:round;stroke-miterlimit:10;" points="
			2.424,181.426 47.958,189.409 39.514,272.485 2.424,267.389 		"/>
	</g>
</g>
<g id="Hand_4">
	<g>
		<path style="fill:#E8E8E8;stroke:#263238;stroke-linecap:round;stroke-linejoin:round;stroke-miterlimit:10;" d="M477.3,167.171
			c0,0-44.846-8.191-51.399-9.829c-6.553-1.638-40.546-12.901-46.28-15.768c-5.734-2.867-10.034-1.843-11.467-0.205
			c-1.434,1.638-7.986,7.577-12.696,10.444s-15.358,12.287-16.177,14.539c-0.819,2.253-0.819,2.253-0.819,2.253
			s1.843,7.781,2.048,9.01c0.205,1.229,3.481,17.201,3.891,18.839c0.41,1.638,3.072,11.263,7.167,13.925
			c4.096,2.662,7.782-4.915,7.782-4.915s4.095,7.782,8.601,12.901s7.167,3.276,8.601,1.843c1.434-1.434,1.434-2.662,1.434-2.662
			s3.481,3.276,6.143,1.843c2.662-1.434,2.867-5.734,2.867-5.734s5.529,3.481,7.167-3.276c0.717-2.959-6.143-10.034-6.143-10.034
			l-1.229-8.601c0,0,32.969-0.41,37.269,0.41c4.3,0.819,48.327,22.116,48.327,22.116S477.479,182.883,477.3,167.171z"/>
		<path style="fill:#263238;stroke:#263238;stroke-linecap:round;stroke-linejoin:round;stroke-miterlimit:10;" d="M498.771,169.71
			l-23.723-3.972c0,0-2.823,9.977-8.973,28.984c-3.758,11.615-11.3,46.169-11.3,46.169l43.996,12.418V169.71z"/>
		<g>
			<path style="fill:#FFFFFF;stroke:#263238;stroke-linecap:round;stroke-linejoin:round;stroke-miterlimit:10;" d="
				M359.772,192.485l-31.018-10.914l-58.893,124.569l68.45,6.738c0,0,24.207-63.944,33.526-76.486
				c9.319-12.542,23.154-32.022,23.154-32.022L359.772,192.485z"/>
		</g>
		<path style="fill:#E8E8E8;stroke:#263238;stroke-linecap:round;stroke-linejoin:round;stroke-miterlimit:10;" d="M382.078,172.291
			c0,0-12.901,12.901-18.02,15.358c-5.119,2.457-15.385,6.045-19.978,11.988c-3.752,4.856-4.186,9.309-0.5,12.175
			c3.686,2.867,20.971-6.067,26.705-8.934c5.734-2.867,11.793-2.943,15.479-3.353c3.686-0.41,24.164-0.819,30.102-0.205
			c5.938,0.614,13.31-5.324,14.13-6.348"/>
		
			<line style="fill:none;stroke:#263238;stroke-linecap:round;stroke-linejoin:round;stroke-miterlimit:10;" x1="369.762" y1="164.352" x2="368.358" y2="160.004"/>
		
			<line style="fill:none;stroke:#263238;stroke-linecap:round;stroke-linejoin:round;stroke-miterlimit:10;" x1="374.551" y1="178.558" x2="370.818" y2="167.622"/>
		<path style="fill:none;stroke:#263238;stroke-linecap:round;stroke-linejoin:round;stroke-miterlimit:10;" d="M373.273,174.338
			c0,0-3.072-0.614-6.143-2.048c-3.072-1.434-6.348-2.662-6.348-2.662l-6.553,6.143c0,0,1.417,11.452,1.417,15.138"/>
		<path style="fill:none;stroke:#263238;stroke-linecap:round;stroke-linejoin:round;stroke-miterlimit:10;" d="M346.857,171.676
			c0,0,3.891,5.324,7.372,4.096"/>
		<path style="fill:none;stroke:#263238;stroke-linecap:round;stroke-linejoin:round;stroke-miterlimit:10;" d="M358.529,160.004
			c0,0-0.205,6.758,2.253,9.624"/>
		
			<line style="fill:none;stroke:#263238;stroke-linecap:round;stroke-linejoin:round;stroke-miterlimit:10;" x1="377.164" y1="169.219" x2="376.549" y2="177"/>
		<polyline style="fill:none;stroke:#263238;stroke-linecap:round;stroke-linejoin:round;stroke-miterlimit:10;" points="
			369.382,173.724 363.46,181.583 364.972,186.624 		"/>
	</g>
</g>
<g id="Box">
	<g>
		<g>
			<polygon style="fill:#92E3A9;stroke:#263238;stroke-linecap:round;stroke-linejoin:round;stroke-miterlimit:10;" points="
				342.541,350.593 151.835,350.593 170.102,317.468 324.274,317.468 			"/>
			<polygon style="fill:#263238;stroke:#263238;stroke-linecap:round;stroke-linejoin:round;stroke-miterlimit:10;" points="
				276.151,330.071 275.585,327.091 218.792,327.091 218.225,330.071 			"/>
		</g>
		
			<rect x="151.835" y="350.593" style="fill:#92E3A9;stroke:#263238;stroke-linecap:round;stroke-linejoin:round;stroke-miterlimit:10;" width="190.698" height="137.047"/>
	</g>
</g>
<g id="TEXT">
	<g>
		<path style="fill:#263238;" d="M192.814,442.638l-9.615-53.348h10.076l5.73,36.224l5.334-36.224h10.67l-9.747,53.348H192.814z"/>
		<path style="fill:#263238;" d="M234.964,443.428c-3.996,0-7.157-0.702-9.484-2.107c-2.327-1.404-3.995-3.425-5.005-6.059
			c-1.011-2.635-1.515-5.773-1.515-9.419V406.02c0-3.688,0.504-6.827,1.515-9.419c1.01-2.59,2.678-4.577,5.005-5.96
			c2.327-1.383,5.488-2.074,9.484-2.074c4.039,0,7.233,0.691,9.583,2.074c2.348,1.383,4.027,3.37,5.038,5.96
			c1.01,2.592,1.515,5.73,1.515,9.419v19.823c0,3.646-0.505,6.784-1.515,9.419c-1.011,2.634-2.69,4.654-5.038,6.059
			C242.198,442.726,239.004,443.428,234.964,443.428z M234.964,435.064c1.229,0,2.129-0.307,2.7-0.922
			c0.57-0.614,0.943-1.404,1.119-2.371c0.176-0.965,0.264-1.953,0.264-2.964v-25.686c0-1.054-0.088-2.052-0.264-2.996
			s-0.549-1.723-1.119-2.339c-0.571-0.614-1.472-0.922-2.7-0.922c-1.143,0-1.999,0.308-2.568,0.922
			c-0.571,0.616-0.945,1.395-1.12,2.339c-0.176,0.944-0.264,1.942-0.264,2.996v25.686c0,1.011,0.076,1.999,0.23,2.964
			c0.153,0.967,0.505,1.757,1.055,2.371C232.845,434.757,233.735,435.064,234.964,435.064z"/>
		<path style="fill:#263238;" d="M262.561,442.638V398.05h-8.035v-8.76h27.859v8.76h-7.97v44.588H262.561z"/>
		<path style="fill:#263238;" d="M287.059,442.638V389.29h23.974v8.035h-12.184v13.238h9.286v8.167h-9.286v15.938h12.316v7.969
			H287.059z"/>
	</g>
</g>
</svg>
